<svg width="256" height="256" viewBox="0 0 256 256" fill="none" xmlns="http://www.w3.org/2000/svg">
<circle cx="128" cy="128" r="128" fill="white"/>
<path d="M120.628 109.056C121.033 108.998 121.441 108.969 121.85 108.969H123.816C124.83 108.969 125.843 109.057 126.842 109.234C127.861 109.414 128.863 109.684 129.835 110.042L130.114 110.145C131.212 110.55 132.27 111.056 133.274 111.659C134.052 112.125 134.794 112.648 135.497 113.222L136.405 113.966L136.767 114.327C137.714 115.274 138.581 116.298 139.36 117.388L139.974 118.249L143.901 124.316L148.184 131.098L150.861 135.381L154.787 141.805L157.264 145.697C157.278 145.72 157.295 145.741 157.314 145.76C157.482 145.928 157.763 145.896 157.888 145.695L160.319 141.805L162.639 138.058L165.138 133.953L167.279 130.562L169.778 126.458L172.455 122.175L174.775 118.427L176.381 115.929L177.987 113.966C178.818 113.135 179.724 112.381 180.692 111.716L181.178 111.381C181.786 110.964 182.43 110.6 183.101 110.295C183.736 110.006 184.394 109.771 185.067 109.591L186.732 109.147C187.564 109.028 188.403 108.969 189.243 108.969H190.327C191.141 108.969 191.953 109.049 192.751 109.209C193.732 109.405 194.685 109.719 195.59 110.145L195.769 110.229C196.76 110.696 197.694 111.278 198.55 111.962L199.046 112.359C199.758 112.952 200.401 113.63 200.956 114.371C201.464 115.048 201.902 115.781 202.257 116.549L202.314 116.673C202.633 117.365 202.893 118.084 203.089 118.82L203.153 119.059C203.389 119.945 203.549 120.849 203.632 121.762L203.686 122.353V122.46C203.686 123.458 203.599 124.453 203.426 125.436C203.243 126.472 202.965 127.489 202.596 128.473L202.08 129.848L200.295 133.239L197.44 137.879L195.12 141.627L192.978 145.018L190.837 148.587L188.517 152.334L185.661 156.974L184.055 159.473L181.557 163.577L177.63 169.645L175.489 172.857L173.526 175.177L171.741 176.783L169.421 178.389L168.832 178.733C167.798 179.336 166.722 179.862 165.61 180.306L164.603 180.709L161.926 181.423C161.213 181.542 160.492 181.602 159.769 181.602H157.17C156.059 181.602 154.949 181.519 153.85 181.354C152.573 181.163 151.316 180.861 150.091 180.453L149.104 180.124C147.779 179.682 146.495 179.127 145.265 178.465L144.793 178.211L142.83 176.783L141.045 175.177L139.439 173.393L138.19 171.608L135.691 167.503L133.55 164.113L130.873 159.83L128.553 156.26L126.411 152.87L124.091 149.122L121.95 145.731L118.916 140.734L118.285 139.923C117.873 139.394 117.415 138.904 116.914 138.459C116.346 137.955 115.728 137.511 115.069 137.134L114.581 136.855C113.902 136.468 113.196 136.132 112.466 135.852C111.651 135.538 110.811 135.295 109.955 135.123L108.565 134.845L103.925 134.488L99.7352 134.372C98.7126 134.344 98.0809 133.245 98.5708 132.347L100.712 128.956L103.211 124.852L106.066 120.212L108.208 116.821L109.814 114.858L109.87 114.802C110.901 113.771 112.024 112.834 113.223 112.004L113.74 111.646L114.541 111.219C115.789 110.553 117.099 110.013 118.454 109.607L119.366 109.333C119.779 109.209 120.201 109.117 120.628 109.056Z" fill="black"/>
<path d="M32 109.732C32 109.604 32.1041 109.5 32.2325 109.5H58.8472C60.1017 109.5 61.3536 109.613 62.5879 109.837C63.9651 110.088 65.3137 110.476 66.6134 110.996L67.3359 111.285L67.9203 111.599C69.0755 112.221 70.1785 112.936 71.2184 113.736L71.976 114.318L72.0032 114.346C73.0536 115.396 74.0056 116.54 74.8472 117.765L75.5452 118.78L77.5083 121.992L79.8284 125.74L82.3269 129.844L84.1115 132.7L86.2531 136.09L88.7516 140.195L91.4285 144.478L93.927 148.583L95.3548 150.724L95.8194 151.247C96.46 151.967 97.1672 152.626 97.9315 153.214C98.7104 153.813 99.557 154.342 100.436 154.781C101.204 155.166 102.021 155.493 102.843 155.746C103.556 155.966 104.291 156.136 105.029 156.253L107.312 156.613L109.989 156.792L116.41 156.948C116.844 156.959 117.134 157.399 116.973 157.802C116.957 157.842 116.937 157.881 116.913 157.916L115.164 160.539L112.666 164.644L109.989 168.927L107.133 173.567L105.349 175.887L104.68 176.556C103.938 177.298 103.13 177.972 102.267 178.57C101.586 179.041 100.872 179.463 100.132 179.834L99.772 180.014C98.8513 180.474 97.895 180.86 96.9124 181.167L96.6445 181.25C95.9047 181.481 95.1486 181.657 94.3825 181.775C93.6041 181.894 92.8177 181.954 92.0301 181.954H91.6548C90.1994 181.954 88.7482 181.799 87.326 181.489L87.2597 181.475C85.9964 181.2 84.7612 180.81 83.5698 180.308L83.3914 180.233C82.445 179.834 81.528 179.369 80.6474 178.841C79.7457 178.3 78.8844 177.694 78.0705 177.028L77.3299 176.422L76.3031 175.395C75.3237 174.416 74.4298 173.355 73.6311 172.223L72.6898 170.89L70.5482 167.321L68.2282 163.573L65.3728 158.933L62.8743 154.829L58.2342 147.333L55.3788 142.693L52.8803 138.589L50.5603 134.841L47.7048 130.201L44.671 125.204L42.8863 122.349L39.8524 117.352L39.2833 116.593C38.5928 115.673 37.8378 114.802 37.0241 113.989L36.8185 113.783L35.3908 112.534L33.0708 110.571L32.1035 109.926C32.0389 109.883 32 109.81 32 109.732Z" fill="black"/>
<path d="M211.372 80.1319C214.087 78.917 217.168 80.8361 217.274 83.8079L218.226 110.412C218.378 114.662 212.836 116.411 210.521 112.844L204.09 102.934C203.46 101.963 202.456 101.296 201.317 101.09L188.456 98.7742C184.398 98.0433 183.723 92.5074 187.487 90.8228L211.372 80.1319Z" fill="black"/>
</svg>
