<svg width="13" height="11" viewBox="0 0 13 11" fill="none" xmlns="http://www.w3.org/2000/svg">
  <path d="M1.265 7.2776C0.755 6.6152 0.5 6.2834 0.5 5.3C0.5 4.316 0.755 3.9854 1.265 3.3224C2.2832 2 3.9908 0.5 6.5 0.5C9.0092 0.5 10.7168 2 11.735 3.3224C12.245 3.986 12.5 4.3166 12.5 5.3C12.5 6.284 12.245 6.6146 11.735 7.2776C10.7168 8.6 9.0092 10.1 6.5 10.1C3.9908 10.1 2.2832 8.6 1.265 7.2776Z" stroke="#F1F1F1" />
  <path d="M8.3002 5.3C8.3002 5.77739 8.11055 6.23523 7.77299 6.57279C7.43542 6.91036 6.97758 7.1 6.5002 7.1C6.02281 7.1 5.56497 6.91036 5.2274 6.57279C4.88984 6.23523 4.7002 5.77739 4.7002 5.3C4.7002 4.82261 4.88984 4.36477 5.2274 4.02721C5.56497 3.68964 6.02281 3.5 6.5002 3.5C6.97758 3.5 7.43542 3.68964 7.77299 4.02721C8.11055 4.36477 8.3002 4.82261 8.3002 5.3Z" stroke="#F1F1F1" />
</svg>