<svg width="512" height="512" viewBox="0 0 512 512" fill="none" xmlns="http://www.w3.org/2000/svg">
  <rect width="512" height="512" fill="white" />
  <path d="M158.542 327.58C159.759 322.439 159.145 323.643 163.651 323.178C165.642 322.973 167.697 322.913 169.825 323.807C168.692 328.233 167.622 332.607 166.45 336.953C163.302 348.634 160.066 360.29 156.976 371.986C156.442 374.004 155.596 374.846 153.467 374.756C146.99 374.482 148.176 375.957 146.033 369.248C143.557 361.498 141.197 353.71 138.735 345.772C137.706 346.352 137.681 347.321 137.427 348.105C134.814 356.168 132.185 364.225 129.671 372.32C129.128 374.068 128.415 374.827 126.456 374.773C120.451 374.608 120.298 374.744 118.727 368.934C114.817 354.476 111.054 339.978 107.245 325.492C107.103 324.949 107.1 324.369 107 323.544C110.12 322.963 113.178 323.173 116.214 323.255C117.355 323.286 117.368 324.444 117.593 325.314C120.02 334.712 122.457 344.108 124.898 353.502C125.019 353.968 125.208 354.417 125.406 354.991C126.448 353.869 126.635 352.54 127.014 351.322C129.237 344.17 131.465 337.019 133.578 329.834C134.136 327.939 135.087 327.316 137.047 327.228C143.376 326.946 142.22 326.604 143.967 332.193C146.126 339.102 148.198 346.039 150.314 352.962C150.455 353.426 150.652 353.873 151.067 354.973C154.041 345.638 156.554 336.793 158.542 327.58Z" fill="black" />
  <path d="M250.966 352.218C249.46 347.232 248.015 342.434 246.479 337.331C249.664 336.462 252.716 336.796 255.726 337.035C256.731 337.115 256.784 338.353 257.025 339.214C258.957 346.095 260.895 352.974 262.984 360.398C264.962 356.825 265.661 353.337 266.989 350.115C268.179 347.228 269.3 344.296 270.181 341.302C270.85 339.034 272.468 339.342 274.068 339.336C275.672 339.33 277.259 339.051 277.94 341.305C279.557 346.658 281.385 351.945 283.142 357.254C283.425 358.107 283.782 358.933 284.343 360.39C284.863 358.864 285.253 357.865 285.544 356.838C287.202 350.983 288.898 345.139 290.44 339.252C290.893 337.521 291.658 336.71 293.455 336.8C295.405 336.898 297.363 336.826 299.318 336.854C300.605 336.872 301.02 337.428 300.615 338.76C297.239 349.855 293.887 360.958 290.577 372.074C290.006 373.991 289.08 374.864 286.929 374.748C280.173 374.385 281.807 375.856 279.265 369.341C277.42 364.612 276.062 359.69 273.722 354.714C271.479 360.768 269.293 366.436 267.305 372.174C266.666 374.021 265.815 374.767 263.817 374.732C257.97 374.631 257.957 374.723 256.214 369.147C254.471 363.571 252.755 357.986 250.966 352.218Z" fill="black" />
  <path d="M219.064 339.558C226.885 333.363 236.775 335.086 242.559 343.527C248.376 352.015 246.752 364.928 239.019 371.669C232.693 377.185 225.264 376.928 217.593 370.912C217.035 371.451 217.424 372.15 217.293 372.755C217.223 373.075 217.316 373.527 217.131 373.711C215.081 375.76 212.548 374.394 210.243 374.584C208.73 374.709 208.868 373.248 208.863 372.204C208.838 367.013 208.844 361.821 208.84 356.629C208.831 345.916 208.876 335.203 208.773 324.491C208.751 322.261 209.357 321.411 211.657 321.47C219.021 321.66 217.757 320.68 217.855 327.792C217.904 331.253 217.838 334.715 217.9 338.175C217.91 338.78 217.398 340.039 219.064 339.558ZM236.115 359.148C236.251 358.589 236.437 358.038 236.516 357.471C237.424 350.924 232.57 342.929 224.263 345.532C220.06 346.848 217.137 352.241 217.972 357.658C218.603 361.75 220.78 364.834 224.838 366.156C228.217 367.257 231.847 365.965 234.19 362.999C235.013 361.957 235.529 360.751 236.115 359.148Z" fill="black" />
  <path d="M335.583 374.687C335.022 374.691 334.697 374.693 334.371 374.694C330.367 374.704 330.367 374.704 330.166 370.534C327.819 372.44 325.605 374.339 322.723 375.08C314.658 377.154 307.377 373.349 303.481 364.999C299.749 356.999 301.67 346.101 307.834 340.309C313.812 334.69 321.824 334.284 328.34 339.269C328.787 339.611 329.235 339.951 329.706 340.309C330.806 339.374 329.525 337.199 331.262 336.994C333.508 336.729 335.822 336.76 338.076 336.984C339.343 337.109 339.063 338.509 339.066 339.45C339.089 346.534 339.081 353.618 339.077 360.702C339.075 364.245 339.064 367.787 339.052 371.329C339.042 374.63 339.039 374.63 335.583 374.687ZM329.876 354.34C328.436 347.055 323.446 343.504 317.45 345.499C311.898 347.347 309.257 355.473 312.293 361.366C315.116 366.844 321.813 368.264 326.35 364.265C329.182 361.769 330.224 358.483 329.876 354.34Z" fill="black" />
  <path d="M193.76 358.793C189.281 358.795 185.046 358.777 180.812 358.811C179.97 358.817 178.869 358.398 178.406 359.463C178.009 360.38 178.669 361.209 179.13 361.973C182.515 367.588 190.879 368.28 195.649 363.19C196.943 361.81 197.761 361.664 198.937 363.048C199.253 363.42 199.66 363.713 200.029 364.036C203.821 367.362 203.82 367.554 199.99 371.065C194.358 376.228 185.273 377.195 178.034 373.402C171.428 369.942 167.419 361.913 168.372 354.089C169.143 347.751 171.527 342.297 177.024 338.752C182.856 334.99 189.081 334.644 195.132 337.933C200.95 341.095 203.936 346.423 204.138 353.083C204.342 359.813 204.718 358.656 198.646 358.796C197.1 358.832 195.552 358.796 193.76 358.793ZM193.537 351.622C195.471 351.451 194.755 350.251 194.32 349.334C192.82 346.163 190.201 344.818 186.811 344.807C183.24 344.796 180.497 346.212 178.89 349.54C178.622 350.095 178.21 350.714 178.789 351.403C178.988 351.457 179.22 351.571 179.452 351.573C184.015 351.602 188.577 351.618 193.537 351.622Z" fill="black" />
  <path d="M365.342 346.228C366.346 343.592 367.32 341.147 368.218 338.674C368.701 337.346 369.478 336.711 370.945 336.762C373.52 336.85 376.101 336.787 378.446 336.787C379.005 337.763 378.7 338.272 378.484 338.806C372.022 354.811 365.499 370.792 359.471 386.971C358.669 389.125 357.616 390.26 355.21 389.949C353.064 389.672 350.847 390.228 348.574 389.565C348.56 387.429 349.705 385.749 350.345 383.951C351.694 380.157 353.178 376.404 354.789 372.716C355.63 370.793 355.417 369.188 354.577 367.335C350.267 357.83 346.07 348.273 341.838 338.731C341.643 338.291 341.359 337.854 341.827 336.835C344.619 336.835 347.659 336.774 350.695 336.865C351.925 336.902 352.026 338.187 352.389 339.05C354.682 344.504 356.928 349.979 359.201 355.441C359.572 356.332 359.84 357.29 360.811 358.193C362.336 354.171 363.808 350.29 365.342 346.228Z" fill="black" />
  <path d="M407.92 361.941C408.336 368.168 404.954 373.266 398.945 374.907C391.733 376.878 385.254 375.406 379.93 369.754C378.697 368.445 378.5 367.539 380.093 366.424C381.62 365.356 383.025 364.11 384.577 362.867C387.443 365.591 390.418 367.797 394.53 367.488C396.526 367.338 398.48 366.945 398.89 364.708C399.309 362.421 397.613 361.32 395.704 360.687C393.152 359.841 390.554 359.131 388.019 358.239C382.341 356.24 379.551 352.068 380.026 346.442C380.443 341.501 384.383 337.383 389.658 336.292C395.809 335.019 401.272 336.198 405.945 340.646C407.497 342.124 408.062 343.351 405.845 344.631C405.636 344.752 405.466 344.943 405.281 345.104C402.083 347.88 402.102 347.849 398.669 345.673C396.37 344.216 393.893 343.584 391.219 344.525C390.181 344.891 389.29 345.463 389.125 346.697C388.951 348.005 389.579 348.915 390.629 349.57C392.468 350.717 394.598 351.019 396.615 351.647C399.183 352.447 401.828 353.082 403.986 354.823C406.179 356.592 407.49 358.907 407.92 361.941Z" fill="black" />
  <path d="M242.693 191.976C243.313 191.887 243.938 191.843 244.565 191.843H247.575C249.128 191.843 250.678 191.978 252.207 192.248C253.769 192.524 255.302 192.938 256.79 193.486L257.218 193.644C258.899 194.263 260.519 195.039 262.056 195.961C263.247 196.676 264.384 197.476 265.459 198.355L266.85 199.494C268.669 201.312 270.334 203.278 271.829 205.371L272.315 206.052L278.327 215.342L284.885 225.726L288.983 232.284L294.995 242.12L298.787 248.08C298.809 248.114 298.835 248.147 298.864 248.176C299.121 248.433 299.551 248.384 299.743 248.076L303.465 242.12L307.018 236.382L310.843 230.098L314.122 224.906L317.948 218.621L322.046 212.063L325.599 206.325L328.058 202.499L330.517 199.494C331.789 198.221 333.176 197.068 334.659 196.049L335.403 195.537C336.334 194.897 337.319 194.34 338.347 193.873C339.319 193.431 340.326 193.071 341.357 192.796L343.906 192.116C345.18 191.934 346.465 191.843 347.751 191.843H349.41C350.656 191.843 351.899 191.966 353.122 192.21C354.623 192.511 356.083 192.992 357.469 193.644L357.742 193.773C359.261 194.488 360.69 195.378 362 196.426L362.76 197.034C363.85 197.942 364.834 198.98 365.685 200.114C366.463 201.151 367.133 202.273 367.676 203.45L367.763 203.639C368.253 204.699 368.65 205.799 368.951 206.927L369.048 207.293C369.41 208.649 369.655 210.033 369.782 211.431L369.865 212.336V212.499C369.865 214.027 369.731 215.552 369.466 217.057C369.186 218.643 368.76 220.2 368.195 221.708L367.406 223.813L364.673 229.005L360.301 236.109L356.749 241.847L353.47 247.039L350.191 252.504L346.639 258.242L342.267 265.347L339.807 269.172L335.982 275.457L329.971 284.747L326.692 289.666L323.686 293.218L320.953 295.677L317.401 298.136L317.182 298.264C315.145 299.453 313.023 300.489 310.833 301.365L310.023 301.689L305.925 302.782C304.834 302.963 303.729 303.055 302.623 303.055H298.644C296.942 303.055 295.243 302.928 293.56 302.676C291.605 302.383 289.68 301.921 287.805 301.296L286.927 301.003C284.477 300.186 282.102 299.16 279.828 297.936L279.693 297.863L276.687 295.677L273.955 293.218L271.495 290.485L269.583 287.753L265.757 281.468L262.478 276.277L258.379 269.719L254.827 264.254L251.548 259.062L247.996 253.324L244.717 248.132L240.072 240.481L239.106 239.239C238.476 238.429 237.773 237.679 237.007 236.997C236.138 236.225 235.191 235.545 234.182 234.968L233.435 234.541C232.396 233.948 231.314 233.434 230.197 233.005C228.949 232.525 227.663 232.152 226.352 231.89L224.223 231.464L217.119 230.917L210.704 230.739C209.139 230.696 208.171 229.013 208.921 227.638L212.2 222.447L216.026 216.162L220.398 209.057L223.677 203.866L226.136 200.86C227.772 199.224 229.552 197.738 231.455 196.421L232.148 195.941L233.373 195.288C235.284 194.269 237.291 193.442 239.365 192.82L240.762 192.401C241.394 192.211 242.039 192.069 242.693 191.976Z" fill="black" />
  <path d="M107 193.018C107 192.822 107.159 192.662 107.356 192.662H148.106C150.027 192.662 151.944 192.835 153.833 193.179C155.942 193.562 158.007 194.156 159.997 194.952L161.103 195.395L161.235 195.466C163.512 196.692 165.685 198.1 167.734 199.676L168.208 200.04C169.844 201.676 171.326 203.459 172.637 205.365L173.673 206.871L176.678 211.79L180.231 217.528L184.056 223.813L186.789 228.185L190.068 233.376L193.893 239.661L197.992 246.219L201.817 252.504L204.003 255.783L204.715 256.583C205.695 257.687 206.778 258.695 207.948 259.595C209.141 260.513 210.437 261.322 211.783 261.995C212.96 262.584 214.21 263.085 215.468 263.472C216.56 263.808 217.686 264.07 218.815 264.248L222.311 264.8L226.41 265.073L236.241 265.313C236.905 265.329 237.35 266.003 237.103 266.62C237.079 266.682 237.048 266.74 237.011 266.795L234.334 270.811L230.508 277.096L226.41 283.654L222.038 290.759L219.305 294.311L218.281 295.335C217.144 296.471 215.908 297.504 214.586 298.419C213.544 299.14 212.451 299.787 211.317 300.354L210.766 300.629C209.357 301.334 207.893 301.925 206.388 302.395L205.978 302.523C204.845 302.877 203.687 303.145 202.515 303.326C201.323 303.509 200.119 303.601 198.913 303.601H198.338C196.11 303.601 193.888 303.362 191.71 302.889L191.609 302.867C189.675 302.447 187.783 301.848 185.959 301.08L185.686 300.965C184.237 300.355 182.833 299.643 181.485 298.834C180.104 298.006 178.785 297.078 177.539 296.058L176.405 295.13L175.48 294.205C173.55 292.275 171.788 290.184 170.215 287.954L169.301 286.66L166.022 281.195L162.469 275.457L158.097 268.352L154.272 262.067L147.168 250.591L142.796 243.487L138.97 237.202L135.418 231.464L131.046 224.359L126.401 216.708L123.668 212.336L119.023 204.685L118.419 203.879C117.184 202.233 115.833 200.676 114.378 199.22L112.192 197.308L108.639 194.302L107.159 193.315C107.059 193.249 107 193.137 107 193.018Z" fill="black" />
  <path d="M379.141 148.817C384.49 146.423 390.561 150.205 390.771 156.061L391.893 187.411C392.193 195.785 381.27 199.232 376.709 192.202L370.921 183.283C369.679 181.369 367.701 180.054 365.456 179.65L352.42 177.302C344.423 175.862 343.093 164.953 350.509 161.633L379.141 148.817Z" fill="black" />
</svg>