<svg width="13" height="11" viewBox="0 0 13 11" fill="none" xmlns="http://www.w3.org/2000/svg">
  <path d="M11.834 0.5L0.97663 5.01421C0.696838 5.13037 0.557297 5.18917 0.521172 5.26496C0.505514 5.29736 0.49834 5.3332 0.500323 5.36913C0.502305 5.40506 0.513379 5.4399 0.532505 5.47038C0.57713 5.54121 0.722338 5.58371 1.01417 5.66942L5.1048 6.875M11.834 0.5L10.3713 9.74304C10.3429 9.92296 10.3288 10.0129 10.2813 10.0618C10.2612 10.0836 10.2368 10.101 10.2096 10.1129C10.1824 10.1247 10.153 10.1307 10.1233 10.1305C10.0546 10.1305 9.97813 10.0795 9.82513 9.9775L7.74971 8.592M11.834 0.5L5.1048 6.875M5.1048 6.875L5.2153 9.92083C5.2153 10.1574 5.2153 10.2757 5.26417 10.3352C5.30667 10.3876 5.37042 10.4174 5.43842 10.4167C5.51634 10.416 5.60842 10.3402 5.79259 10.19L7.74971 8.592M5.1048 6.875L7.74971 8.592" stroke="#1D6ECF" stroke-linecap="round" stroke-linejoin="round" />
</svg>