<svg width="12" height="12" viewBox="0 0 12 12" fill="none" xmlns="http://www.w3.org/2000/svg">
  <path d="M9.63333 1.64337C9.11408 1.12021 8.49599 0.705512 7.81502 0.423393C7.13404 0.141274 6.40376 -0.00263488 5.66667 3.65209e-05C4.68127 0.000998068 3.71342 0.260841 2.86004 0.753545C2.00667 1.24625 1.29772 1.95452 0.804199 2.80742C0.310677 3.66032 0.0499057 4.62792 0.0479987 5.61332C0.0460917 6.59871 0.303116 7.56731 0.793333 8.42212L0 11.3334L2.975 10.5542C3.79615 11.0121 4.71943 11.2557 5.65958 11.2625C7.15393 11.2626 8.5878 10.6724 9.64909 9.62038C10.7104 8.56837 11.3132 7.13974 11.3263 5.64545C11.3213 4.89979 11.1692 4.16245 10.8787 3.47569C10.5881 2.78893 10.165 2.16626 9.63333 1.64337ZM5.66667 10.2921C4.82929 10.292 4.00732 10.0669 3.28667 9.64045L3.11667 9.5342L1.35292 10.0017L1.82042 8.28045L1.70708 8.10337C1.10447 7.13059 0.879568 5.97057 1.07498 4.84307C1.2704 3.71557 1.87256 2.6989 2.76739 1.98565C3.66222 1.27241 4.78757 0.912128 5.93026 0.973063C7.07295 1.034 8.1536 1.51192 8.9675 2.31629C9.85717 3.18626 10.3665 4.37291 10.3842 5.61712C10.373 6.8609 9.871 8.04992 8.98751 8.92546C8.10402 9.80099 6.9105 10.2922 5.66667 10.2921ZM8.22375 6.79295C8.08208 6.72212 7.395 6.38212 7.2675 6.33962C7.14 6.29712 7.04083 6.26879 6.94875 6.41045C6.81017 6.60035 6.66119 6.78243 6.5025 6.95587C6.42458 7.05504 6.33958 7.06212 6.19792 6.95587C5.39023 6.63668 4.71728 6.04879 4.2925 5.29129C4.14375 5.04337 4.43417 5.05754 4.70333 4.52629C4.7232 4.48799 4.73358 4.44547 4.73358 4.40233C4.73358 4.35918 4.7232 4.31667 4.70333 4.27837C4.70333 4.20754 4.38458 3.51337 4.27125 3.23712C4.15792 2.96087 4.04458 3.00337 3.9525 2.99629H3.67625C3.60459 2.99692 3.53393 3.01308 3.46912 3.04365C3.40431 3.07422 3.3469 3.11848 3.30083 3.17337C3.14227 3.32819 3.01855 3.51505 2.93794 3.72148C2.85732 3.9279 2.82166 4.14915 2.83333 4.37045C2.87692 4.90054 3.07657 5.40583 3.40708 5.82254C4.01097 6.72599 4.83814 7.458 5.80833 7.94754C6.31725 8.24464 6.90872 8.36889 7.49417 8.3017C7.68912 8.26301 7.87375 8.18374 8.03605 8.06902C8.19836 7.95431 8.33471 7.80673 8.43625 7.63587C8.53117 7.4276 8.5608 7.19547 8.52125 6.97004C8.4575 6.8992 8.36542 6.86379 8.22375 6.79295Z" fill="#1D6ECF" />
</svg>